<svg width="124" height="58" viewBox="0 0 124 58" fill="none" xmlns="http://www.w3.org/2000/svg">
<path d="M6.38672 1.17188L11.8652 16.6406L17.3145 1.17188H23.0859V22.5H18.6768V16.6699L19.1162 6.60645L13.3594 22.5H10.3418L4.59961 6.62109L5.03906 16.6699V22.5H0.644531V1.17188H6.38672Z" fill="white"/>
<path d="M33.9404 22.793C31.6162 22.793 29.7217 22.0801 28.2568 20.6543C26.8018 19.2285 26.0742 17.3291 26.0742 14.9561V14.5459C26.0742 12.9541 26.3818 11.5332 26.9971 10.2832C27.6123 9.02344 28.4814 8.05664 29.6045 7.38281C30.7373 6.69922 32.0264 6.35742 33.4717 6.35742C35.6396 6.35742 37.3438 7.04102 38.584 8.4082C39.834 9.77539 40.459 11.7139 40.459 14.2236V15.9521H30.3662C30.5029 16.9873 30.9131 17.8174 31.5967 18.4424C32.29 19.0674 33.1641 19.3799 34.2188 19.3799C35.8496 19.3799 37.124 18.7891 38.042 17.6074L40.1221 19.9365C39.4873 20.835 38.6279 21.5381 37.5439 22.0459C36.46 22.5439 35.2588 22.793 33.9404 22.793ZM33.457 9.78516C32.6172 9.78516 31.9336 10.0684 31.4062 10.6348C30.8887 11.2012 30.5566 12.0117 30.4102 13.0664H36.2988V12.7295C36.2793 11.792 36.0254 11.0693 35.5371 10.5615C35.0488 10.0439 34.3555 9.78516 33.457 9.78516Z" fill="white"/>
<path d="M42.2168 14.458C42.2168 11.9873 42.7686 10.0195 43.8721 8.55469C44.9854 7.08984 46.5039 6.35742 48.4277 6.35742C49.9707 6.35742 51.2451 6.93359 52.251 8.08594V0H56.499V22.5H52.6758L52.4707 20.8154C51.416 22.1338 50.0586 22.793 48.3984 22.793C46.5332 22.793 45.0342 22.0605 43.9014 20.5957C42.7783 19.1211 42.2168 17.0752 42.2168 14.458ZM46.4502 14.7656C46.4502 16.25 46.709 17.3877 47.2266 18.1787C47.7441 18.9697 48.4961 19.3652 49.4824 19.3652C50.791 19.3652 51.7139 18.8135 52.251 17.71V11.4551C51.7236 10.3516 50.8105 9.7998 49.5117 9.7998C47.4707 9.7998 46.4502 11.4551 46.4502 14.7656Z" fill="white"/>
<path d="M64.248 22.5H60V6.65039H64.248V22.5ZM59.751 2.54883C59.751 1.91406 59.9609 1.3916 60.3809 0.981445C60.8105 0.571289 61.3916 0.366211 62.124 0.366211C62.8467 0.366211 63.4229 0.571289 63.8525 0.981445C64.2822 1.3916 64.4971 1.91406 64.4971 2.54883C64.4971 3.19336 64.2773 3.7207 63.8379 4.13086C63.4082 4.54102 62.8369 4.74609 62.124 4.74609C61.4111 4.74609 60.835 4.54102 60.3955 4.13086C59.9658 3.7207 59.751 3.19336 59.751 2.54883Z" fill="white"/>
<path d="M74.3408 19.3799C75.1221 19.3799 75.7568 19.165 76.2451 18.7354C76.7334 18.3057 76.9873 17.7344 77.0068 17.0215H80.9766C80.9668 18.0957 80.6738 19.082 80.0977 19.9805C79.5215 20.8691 78.7305 21.5625 77.7246 22.0605C76.7285 22.5488 75.625 22.793 74.4141 22.793C72.1484 22.793 70.3613 22.0752 69.0527 20.6396C67.7441 19.1943 67.0898 17.2021 67.0898 14.6631V14.3848C67.0898 11.9434 67.7393 9.99512 69.0381 8.54004C70.3369 7.08496 72.1191 6.35742 74.3848 6.35742C76.3672 6.35742 77.9541 6.92383 79.1455 8.05664C80.3467 9.17969 80.957 10.6787 80.9766 12.5537H77.0068C76.9873 11.7334 76.7334 11.0693 76.2451 10.5615C75.7568 10.0439 75.1123 9.78516 74.3115 9.78516C73.3252 9.78516 72.5781 10.1465 72.0703 10.8691C71.5723 11.582 71.3232 12.7441 71.3232 14.3555V14.7949C71.3232 16.4258 71.5723 17.5977 72.0703 18.3105C72.5684 19.0234 73.3252 19.3799 74.3408 19.3799Z" fill="white"/>
<path d="M92.5781 22.5C92.3828 22.1191 92.2412 21.6455 92.1533 21.0791C91.1279 22.2217 89.7949 22.793 88.1543 22.793C86.6016 22.793 85.3125 22.3438 84.2871 21.4453C83.2715 20.5469 82.7637 19.4141 82.7637 18.0469C82.7637 16.3672 83.3838 15.0781 84.624 14.1797C85.874 13.2812 87.6758 12.8271 90.0293 12.8174H91.9775V11.9092C91.9775 11.1768 91.7871 10.5908 91.4062 10.1514C91.0352 9.71191 90.4443 9.49219 89.6338 9.49219C88.9209 9.49219 88.3594 9.66309 87.9492 10.0049C87.5488 10.3467 87.3486 10.8154 87.3486 11.4111H83.1152C83.1152 10.4932 83.3984 9.64355 83.9648 8.8623C84.5312 8.08105 85.332 7.4707 86.3672 7.03125C87.4023 6.58203 88.5645 6.35742 89.8535 6.35742C91.8066 6.35742 93.3545 6.85059 94.4971 7.83691C95.6494 8.81348 96.2256 10.1904 96.2256 11.9678V18.8379C96.2354 20.3418 96.4453 21.4795 96.8555 22.251V22.5H92.5781ZM89.0771 19.5557C89.7021 19.5557 90.2783 19.4189 90.8057 19.1455C91.333 18.8623 91.7236 18.4863 91.9775 18.0176V15.293H90.3955C88.2764 15.293 87.1484 16.0254 87.0117 17.4902L86.9971 17.7393C86.9971 18.2666 87.1826 18.7012 87.5537 19.043C87.9248 19.3848 88.4326 19.5557 89.0771 19.5557Z" fill="white"/>
<path d="M103.945 22.5H99.6973V0H103.945V22.5Z" fill="white"/>
<path d="M17.3877 50.3955C17.2217 52.6904 16.3721 54.4971 14.8389 55.8154C13.3154 57.1338 11.3037 57.793 8.80371 57.793C6.06934 57.793 3.91602 56.875 2.34375 55.0391C0.78125 53.1934 0 50.6641 0 47.4512V46.1475C0 44.0967 0.361328 42.29 1.08398 40.7275C1.80664 39.165 2.83691 37.9688 4.1748 37.1387C5.52246 36.2988 7.08496 35.8789 8.8623 35.8789C11.3232 35.8789 13.3057 36.5381 14.8096 37.8564C16.3135 39.1748 17.1826 41.0254 17.417 43.4082H13.0225C12.915 42.0312 12.5293 41.0352 11.8652 40.4199C11.2109 39.7949 10.21 39.4824 8.8623 39.4824C7.39746 39.4824 6.29883 40.0098 5.56641 41.0645C4.84375 42.1094 4.47266 43.7354 4.45312 45.9424V47.5537C4.45312 49.8584 4.7998 51.543 5.49316 52.6074C6.19629 53.6719 7.2998 54.2041 8.80371 54.2041C10.1611 54.2041 11.1719 53.8965 11.8359 53.2812C12.5098 52.6562 12.8955 51.6943 12.9932 50.3955H17.3877Z" fill="white"/>
<path d="M29.1797 57.5C28.9844 57.1191 28.8428 56.6455 28.7549 56.0791C27.7295 57.2217 26.3965 57.793 24.7559 57.793C23.2031 57.793 21.9141 57.3438 20.8887 56.4453C19.873 55.5469 19.3652 54.4141 19.3652 53.0469C19.3652 51.3672 19.9854 50.0781 21.2256 49.1797C22.4756 48.2812 24.2773 47.8271 26.6309 47.8174H28.5791V46.9092C28.5791 46.1768 28.3887 45.5908 28.0078 45.1514C27.6367 44.7119 27.0459 44.4922 26.2354 44.4922C25.5225 44.4922 24.9609 44.6631 24.5508 45.0049C24.1504 45.3467 23.9502 45.8154 23.9502 46.4111H19.7168C19.7168 45.4932 20 44.6436 20.5664 43.8623C21.1328 43.0811 21.9336 42.4707 22.9688 42.0312C24.0039 41.582 25.166 41.3574 26.4551 41.3574C28.4082 41.3574 29.9561 41.8506 31.0986 42.8369C32.251 43.8135 32.8271 45.1904 32.8271 46.9678V53.8379C32.8369 55.3418 33.0469 56.4795 33.457 57.251V57.5H29.1797ZM25.6787 54.5557C26.3037 54.5557 26.8799 54.4189 27.4072 54.1455C27.9346 53.8623 28.3252 53.4863 28.5791 53.0176V50.293H26.9971C24.8779 50.293 23.75 51.0254 23.6133 52.4902L23.5986 52.7393C23.5986 53.2666 23.7842 53.7012 24.1553 54.043C24.5264 54.3848 25.0342 54.5557 25.6787 54.5557Z" fill="white"/>
<path d="M39.9756 41.6504L40.1074 43.4814C41.2402 42.0654 42.7588 41.3574 44.6631 41.3574C46.3428 41.3574 47.5928 41.8506 48.4131 42.8369C49.2334 43.8232 49.6533 45.2979 49.6729 47.2607V57.5H45.4395V47.3633C45.4395 46.4648 45.2441 45.8154 44.8535 45.415C44.4629 45.0049 43.8135 44.7998 42.9053 44.7998C41.7139 44.7998 40.8203 45.3076 40.2246 46.3232V57.5H35.9912V41.6504H39.9756Z" fill="white"/>
<path d="M56.792 41.6504L56.9238 43.4814C58.0566 42.0654 59.5752 41.3574 61.4795 41.3574C63.1592 41.3574 64.4092 41.8506 65.2295 42.8369C66.0498 43.8232 66.4697 45.2979 66.4893 47.2607V57.5H62.2559V47.3633C62.2559 46.4648 62.0605 45.8154 61.6699 45.415C61.2793 45.0049 60.6299 44.7998 59.7217 44.7998C58.5303 44.7998 57.6367 45.3076 57.041 46.3232V57.5H52.8076V41.6504H56.792Z" fill="white"/>
<path d="M78.8965 57.5C78.7012 57.1191 78.5596 56.6455 78.4717 56.0791C77.4463 57.2217 76.1133 57.793 74.4727 57.793C72.9199 57.793 71.6309 57.3438 70.6055 56.4453C69.5898 55.5469 69.082 54.4141 69.082 53.0469C69.082 51.3672 69.7021 50.0781 70.9424 49.1797C72.1924 48.2812 73.9941 47.8271 76.3477 47.8174H78.2959V46.9092C78.2959 46.1768 78.1055 45.5908 77.7246 45.1514C77.3535 44.7119 76.7627 44.4922 75.9521 44.4922C75.2393 44.4922 74.6777 44.6631 74.2676 45.0049C73.8672 45.3467 73.667 45.8154 73.667 46.4111H69.4336C69.4336 45.4932 69.7168 44.6436 70.2832 43.8623C70.8496 43.0811 71.6504 42.4707 72.6855 42.0312C73.7207 41.582 74.8828 41.3574 76.1719 41.3574C78.125 41.3574 79.6729 41.8506 80.8154 42.8369C81.9678 43.8135 82.5439 45.1904 82.5439 46.9678V53.8379C82.5537 55.3418 82.7637 56.4795 83.1738 57.251V57.5H78.8965ZM75.3955 54.5557C76.0205 54.5557 76.5967 54.4189 77.124 54.1455C77.6514 53.8623 78.042 53.4863 78.2959 53.0176V50.293H76.7139C74.5947 50.293 73.4668 51.0254 73.3301 52.4902L73.3154 52.7393C73.3154 53.2666 73.501 53.7012 73.8721 54.043C74.2432 54.3848 74.751 54.5557 75.3955 54.5557Z" fill="white"/>
<path d="M100.078 49.7217C100.078 52.2607 99.5361 54.2432 98.4521 55.6689C97.3682 57.085 95.8545 57.793 93.9111 57.793C92.1924 57.793 90.8203 57.1338 89.7949 55.8154L89.6045 57.5H85.7959V35H90.0293V43.0713C91.0059 41.9287 92.29 41.3574 93.8818 41.3574C95.8154 41.3574 97.3291 42.0703 98.4229 43.4961C99.5264 44.9121 100.078 46.9092 100.078 49.4873V49.7217ZM95.8447 49.4141C95.8447 47.8125 95.5908 46.6455 95.083 45.9131C94.5752 45.1709 93.8184 44.7998 92.8125 44.7998C91.4648 44.7998 90.5371 45.3516 90.0293 46.4551V52.71C90.5469 53.8232 91.4844 54.3799 92.8418 54.3799C94.209 54.3799 95.1074 53.7061 95.5371 52.3584C95.7422 51.7139 95.8447 50.7324 95.8447 49.4141Z" fill="white"/>
<path d="M107.168 57.5H102.92V41.6504H107.168V57.5ZM102.671 37.5488C102.671 36.9141 102.881 36.3916 103.301 35.9814C103.73 35.5713 104.312 35.3662 105.044 35.3662C105.767 35.3662 106.343 35.5713 106.772 35.9814C107.202 36.3916 107.417 36.9141 107.417 37.5488C107.417 38.1934 107.197 38.7207 106.758 39.1309C106.328 39.541 105.757 39.7461 105.044 39.7461C104.331 39.7461 103.755 39.541 103.315 39.1309C102.886 38.7207 102.671 38.1934 102.671 37.5488Z" fill="white"/>
<path d="M119.253 53.1201C119.253 52.6025 118.994 52.1973 118.477 51.9043C117.969 51.6016 117.148 51.333 116.016 51.0986C112.246 50.3076 110.361 48.7061 110.361 46.2939C110.361 44.8877 110.942 43.7158 112.104 42.7783C113.276 41.8311 114.805 41.3574 116.689 41.3574C118.701 41.3574 120.308 41.8311 121.509 42.7783C122.72 43.7256 123.325 44.9561 123.325 46.4697H119.092C119.092 45.8643 118.896 45.3662 118.506 44.9756C118.115 44.5752 117.505 44.375 116.675 44.375C115.962 44.375 115.41 44.5361 115.02 44.8584C114.629 45.1807 114.434 45.5908 114.434 46.0889C114.434 46.5576 114.653 46.9385 115.093 47.2314C115.542 47.5146 116.294 47.7637 117.349 47.9785C118.403 48.1836 119.292 48.418 120.015 48.6816C122.251 49.502 123.369 50.9229 123.369 52.9443C123.369 54.3896 122.749 55.5615 121.509 56.46C120.269 57.3486 118.667 57.793 116.704 57.793C115.376 57.793 114.194 57.5586 113.159 57.0898C112.134 56.6113 111.328 55.9619 110.742 55.1416C110.156 54.3115 109.863 53.418 109.863 52.4609H113.877C113.916 53.2129 114.194 53.7891 114.712 54.1895C115.229 54.5898 115.923 54.79 116.792 54.79C117.603 54.79 118.213 54.6387 118.623 54.3359C119.043 54.0234 119.253 53.6182 119.253 53.1201Z" fill="white"/>
</svg>
